<svg id="visual" viewBox="0 0 900 600" width="900" height="600" xmlns="http://www.w3.org/2000/svg" xmlns:xlink="http://www.w3.org/1999/xlink" version="1.1"><g stroke-width="1" stroke-linejoin="bevel"><path d="M448 282.1L376 369.9L459 320.9Z" fill="#081a28" stroke="#081a28"></path><path d="M448 282.1L381 230.1L376 369.9Z" fill="#297ea6" stroke="#297ea6"></path><path d="M376 369.9L456 404.6L459 320.9Z" fill="#297ea6" stroke="#297ea6"></path><path d="M376 369.9L382 439.6L456 404.6Z" fill="#246688" stroke="#246688"></path><path d="M422 149.4L361 190.4L381 230.1Z" fill="#15384f" stroke="#15384f"></path><path d="M381 230.1L271 352.9L376 369.9Z" fill="#15384f" stroke="#15384f"></path><path d="M247 256.1L271 352.9L381 230.1Z" fill="#205a7a" stroke="#205a7a"></path><path d="M376 369.9L262 426.6L382 439.6Z" fill="#1d4e6b" stroke="#1d4e6b"></path><path d="M456 404.6L553 353.9L459 320.9Z" fill="#205a7a" stroke="#205a7a"></path><path d="M459 320.9L550 244.1L448 282.1Z" fill="#246688" stroke="#246688"></path><path d="M448 282.1L422 149.4L381 230.1Z" fill="#246688" stroke="#246688"></path><path d="M361 190.4L247 256.1L381 230.1Z" fill="#1d4e6b" stroke="#1d4e6b"></path><path d="M553 353.9L550 244.1L459 320.9Z" fill="#112e42" stroke="#112e42"></path><path d="M545 162.4L422 149.4L448 282.1Z" fill="#277297" stroke="#277297"></path><path d="M361 190.4L295 152.4L247 256.1Z" fill="#205a7a" stroke="#205a7a"></path><path d="M203 360.9L262 426.6L271 352.9Z" fill="#1d4e6b" stroke="#1d4e6b"></path><path d="M271 352.9L262 426.6L376 369.9Z" fill="#19435d" stroke="#19435d"></path><path d="M449 489.3L520 448.6L456 404.6Z" fill="#297ea6" stroke="#297ea6"></path><path d="M456 404.6L520 448.6L553 353.9Z" fill="#081a28" stroke="#081a28"></path><path d="M382 439.6L449 489.3L456 404.6Z" fill="#277297" stroke="#277297"></path><path d="M355 518.3L449 489.3L382 439.6Z" fill="#277297" stroke="#277297"></path><path d="M374 92.7L295 152.4L361 190.4Z" fill="#1d4e6b" stroke="#1d4e6b"></path><path d="M247 256.1L203 360.9L271 352.9Z" fill="#205a7a" stroke="#205a7a"></path><path d="M262 426.6L355 518.3L382 439.6Z" fill="#15384f" stroke="#15384f"></path><path d="M550 244.1L545 162.4L448 282.1Z" fill="#0c2435" stroke="#0c2435"></path><path d="M197 157.4L192 238.1L247 256.1Z" fill="#0c2435" stroke="#0c2435"></path><path d="M247 256.1L192 238.1L203 360.9Z" fill="#297ea6" stroke="#297ea6"></path><path d="M428 82.7L374 92.7L422 149.4Z" fill="#1d4e6b" stroke="#1d4e6b"></path><path d="M422 149.4L374 92.7L361 190.4Z" fill="#15384f" stroke="#15384f"></path><path d="M615 411.6L631 355.9L553 353.9Z" fill="#246688" stroke="#246688"></path><path d="M553 353.9L633 247.1L550 244.1Z" fill="#277297" stroke="#277297"></path><path d="M550 244.1L647 191.4L545 162.4Z" fill="#205a7a" stroke="#205a7a"></path><path d="M520 448.6L615 411.6L553 353.9Z" fill="#081a28" stroke="#081a28"></path><path d="M567 513.3L615 411.6L520 448.6Z" fill="#00101c" stroke="#00101c"></path><path d="M545 162.4L428 82.7L422 149.4Z" fill="#205a7a" stroke="#205a7a"></path><path d="M374 92.7L281 109.7L295 152.4Z" fill="#081a28" stroke="#081a28"></path><path d="M295 152.4L197 157.4L247 256.1Z" fill="#0c2435" stroke="#0c2435"></path><path d="M204 104.7L281 109.7L280 0Z" fill="#081a28" stroke="#081a28"></path><path d="M631 355.9L633 247.1L553 353.9Z" fill="#297ea6" stroke="#297ea6"></path><path d="M187 519.3L287 540.3L262 426.6Z" fill="#277297" stroke="#277297"></path><path d="M262 426.6L287 540.3L355 518.3Z" fill="#19435d" stroke="#19435d"></path><path d="M536 600L567 513.3L449 489.3Z" fill="#00101c" stroke="#00101c"></path><path d="M84 343.9L168 420.6L203 360.9Z" fill="#1d4e6b" stroke="#1d4e6b"></path><path d="M203 360.9L168 420.6L262 426.6Z" fill="#246688" stroke="#246688"></path><path d="M442 600L449 489.3L355 518.3Z" fill="#00101c" stroke="#00101c"></path><path d="M449 489.3L567 513.3L520 448.6Z" fill="#246688" stroke="#246688"></path><path d="M281 109.7L197 157.4L295 152.4Z" fill="#00101c" stroke="#00101c"></path><path d="M192 238.1L84 343.9L203 360.9Z" fill="#297ea6" stroke="#297ea6"></path><path d="M707 280.1L647 191.4L633 247.1Z" fill="#297ea6" stroke="#297ea6"></path><path d="M633 247.1L647 191.4L550 244.1Z" fill="#00101c" stroke="#00101c"></path><path d="M545 162.4L553 64.7L428 82.7Z" fill="#277297" stroke="#277297"></path><path d="M287 540.3L369 600L355 518.3Z" fill="#1d4e6b" stroke="#1d4e6b"></path><path d="M369 600L442 600L355 518.3Z" fill="#246688" stroke="#246688"></path><path d="M353 0L281 109.7L374 92.7Z" fill="#277297" stroke="#277297"></path><path d="M281 109.7L204 104.7L197 157.4Z" fill="#297ea6" stroke="#297ea6"></path><path d="M168 420.6L187 519.3L262 426.6Z" fill="#1d4e6b" stroke="#1d4e6b"></path><path d="M287 540.3L255 600L369 600Z" fill="#0c2435" stroke="#0c2435"></path><path d="M624 63.7L553 64.7L545 162.4Z" fill="#19435d" stroke="#19435d"></path><path d="M428 82.7L353 0L374 92.7Z" fill="#00101c" stroke="#00101c"></path><path d="M536 600L602 535.3L567 513.3Z" fill="#112e42" stroke="#112e42"></path><path d="M567 513.3L602 535.3L615 411.6Z" fill="#081a28" stroke="#081a28"></path><path d="M734 340.9L707 280.1L631 355.9Z" fill="#0c2435" stroke="#0c2435"></path><path d="M631 355.9L707 280.1L633 247.1Z" fill="#112e42" stroke="#112e42"></path><path d="M718 402.6L631 355.9L615 411.6Z" fill="#00101c" stroke="#00101c"></path><path d="M442 600L536 600L449 489.3Z" fill="#081a28" stroke="#081a28"></path><path d="M73 251.1L84 343.9L192 238.1Z" fill="#081a28" stroke="#081a28"></path><path d="M168 420.6L87 422.6L187 519.3Z" fill="#112e42" stroke="#112e42"></path><path d="M73 251.1L192 238.1L77 172.4Z" fill="#246688" stroke="#246688"></path><path d="M187 519.3L255 600L287 540.3Z" fill="#1d4e6b" stroke="#1d4e6b"></path><path d="M454 0L353 0L428 82.7Z" fill="#15384f" stroke="#15384f"></path><path d="M553 64.7L454 0L428 82.7Z" fill="#19435d" stroke="#19435d"></path><path d="M738 525.3L718 402.6L615 411.6Z" fill="#246688" stroke="#246688"></path><path d="M84 343.9L87 422.6L168 420.6Z" fill="#112e42" stroke="#112e42"></path><path d="M187 519.3L195 600L255 600Z" fill="#15384f" stroke="#15384f"></path><path d="M77 172.4L192 238.1L197 157.4Z" fill="#277297" stroke="#277297"></path><path d="M0 425.6L64 528.3L87 422.6Z" fill="#081a28" stroke="#081a28"></path><path d="M718 402.6L734 340.9L631 355.9Z" fill="#297ea6" stroke="#297ea6"></path><path d="M647 191.4L624 63.7L545 162.4Z" fill="#081a28" stroke="#081a28"></path><path d="M553 64.7L551 0L454 0Z" fill="#00101c" stroke="#00101c"></path><path d="M702 162.4L624 63.7L647 191.4Z" fill="#00101c" stroke="#00101c"></path><path d="M702 162.4L647 191.4L707 280.1Z" fill="#0c2435" stroke="#0c2435"></path><path d="M809 235.1L702 162.4L707 280.1Z" fill="#081a28" stroke="#081a28"></path><path d="M353 0L280 0L281 109.7Z" fill="#00101c" stroke="#00101c"></path><path d="M116 96.7L77 172.4L197 157.4Z" fill="#277297" stroke="#277297"></path><path d="M108 600L195 600L187 519.3Z" fill="#081a28" stroke="#081a28"></path><path d="M624 63.7L551 0L553 64.7Z" fill="#297ea6" stroke="#297ea6"></path><path d="M116 96.7L197 157.4L204 104.7Z" fill="#19435d" stroke="#19435d"></path><path d="M168 0L116 96.7L204 104.7Z" fill="#15384f" stroke="#15384f"></path><path d="M536 600L627 600L602 535.3Z" fill="#19435d" stroke="#19435d"></path><path d="M602 535.3L738 525.3L615 411.6Z" fill="#205a7a" stroke="#205a7a"></path><path d="M728 72.7L626 0L624 63.7Z" fill="#081a28" stroke="#081a28"></path><path d="M624 63.7L626 0L551 0Z" fill="#15384f" stroke="#15384f"></path><path d="M280 0L168 0L204 104.7Z" fill="#112e42" stroke="#112e42"></path><path d="M718 402.6L791 412.6L734 340.9Z" fill="#00101c" stroke="#00101c"></path><path d="M627 600L738 525.3L602 535.3Z" fill="#19435d" stroke="#19435d"></path><path d="M0 425.6L87 422.6L84 343.9Z" fill="#081a28" stroke="#081a28"></path><path d="M87 422.6L64 528.3L187 519.3Z" fill="#205a7a" stroke="#205a7a"></path><path d="M73 251.1L0 316.9L84 343.9Z" fill="#112e42" stroke="#112e42"></path><path d="M0 267.1L0 316.9L73 251.1Z" fill="#15384f" stroke="#15384f"></path><path d="M0 267.1L73 251.1L77 172.4Z" fill="#277297" stroke="#277297"></path><path d="M795 496.3L791 412.6L718 402.6Z" fill="#00101c" stroke="#00101c"></path><path d="M734 340.9L814 326.9L707 280.1Z" fill="#0c2435" stroke="#0c2435"></path><path d="M0 145.4L77 172.4L0 108.7Z" fill="#081a28" stroke="#081a28"></path><path d="M0 145.4L0 267.1L77 172.4Z" fill="#205a7a" stroke="#205a7a"></path><path d="M64 528.3L108 600L187 519.3Z" fill="#0c2435" stroke="#0c2435"></path><path d="M702 162.4L728 72.7L624 63.7Z" fill="#00101c" stroke="#00101c"></path><path d="M803 183.4L728 72.7L702 162.4Z" fill="#297ea6" stroke="#297ea6"></path><path d="M791 412.6L814 326.9L734 340.9Z" fill="#19435d" stroke="#19435d"></path><path d="M0 316.9L0 425.6L84 343.9Z" fill="#15384f" stroke="#15384f"></path><path d="M64 528.3L0 600L108 600Z" fill="#205a7a" stroke="#205a7a"></path><path d="M814 326.9L809 235.1L707 280.1Z" fill="#246688" stroke="#246688"></path><path d="M809 235.1L803 183.4L702 162.4Z" fill="#112e42" stroke="#112e42"></path><path d="M627 600L723 600L738 525.3Z" fill="#246688" stroke="#246688"></path><path d="M738 525.3L795 496.3L718 402.6Z" fill="#15384f" stroke="#15384f"></path><path d="M900 414.6L900 336.9L814 326.9Z" fill="#277297" stroke="#277297"></path><path d="M799 600L795 496.3L738 525.3Z" fill="#112e42" stroke="#112e42"></path><path d="M0 108.7L77 172.4L116 96.7Z" fill="#19435d" stroke="#19435d"></path><path d="M168 0L87 0L116 96.7Z" fill="#15384f" stroke="#15384f"></path><path d="M87 0L0 108.7L116 96.7Z" fill="#297ea6" stroke="#297ea6"></path><path d="M0 425.6L0 530.3L64 528.3Z" fill="#277297" stroke="#277297"></path><path d="M787 0L746 0L728 72.7Z" fill="#15384f" stroke="#15384f"></path><path d="M728 72.7L746 0L626 0Z" fill="#205a7a" stroke="#205a7a"></path><path d="M900 193.4L831 98.7L803 183.4Z" fill="#205a7a" stroke="#205a7a"></path><path d="M803 183.4L831 98.7L728 72.7Z" fill="#19435d" stroke="#19435d"></path><path d="M900 193.4L803 183.4L809 235.1Z" fill="#00101c" stroke="#00101c"></path><path d="M723 600L799 600L738 525.3Z" fill="#00101c" stroke="#00101c"></path><path d="M900 414.6L814 326.9L791 412.6Z" fill="#15384f" stroke="#15384f"></path><path d="M814 326.9L900 254.1L809 235.1Z" fill="#00101c" stroke="#00101c"></path><path d="M0 530.3L0 600L64 528.3Z" fill="#277297" stroke="#277297"></path><path d="M831 98.7L787 0L728 72.7Z" fill="#277297" stroke="#277297"></path><path d="M900 414.6L791 412.6L795 496.3Z" fill="#15384f" stroke="#15384f"></path><path d="M900 336.9L900 254.1L814 326.9Z" fill="#246688" stroke="#246688"></path><path d="M900 506.3L900 414.6L795 496.3Z" fill="#246688" stroke="#246688"></path><path d="M87 0L0 0L0 108.7Z" fill="#297ea6" stroke="#297ea6"></path><path d="M900 254.1L900 193.4L809 235.1Z" fill="#00101c" stroke="#00101c"></path><path d="M831 98.7L900 0L787 0Z" fill="#297ea6" stroke="#297ea6"></path><path d="M799 600L900 506.3L795 496.3Z" fill="#19435d" stroke="#19435d"></path><path d="M900 193.4L900 98.7L831 98.7Z" fill="#00101c" stroke="#00101c"></path><path d="M799 600L900 600L900 506.3Z" fill="#0c2435" stroke="#0c2435"></path><path d="M900 98.7L900 0L831 98.7Z" fill="#081a28" stroke="#081a28"></path></g></svg>