<svg id="visual" viewBox="0 0 900 600" width="900" height="600" xmlns="http://www.w3.org/2000/svg" xmlns:xlink="http://www.w3.org/1999/xlink" version="1.1"><rect x="0" y="0" width="900" height="600" fill="#00101C"></rect><path d="M0 404L129 376L257 368L386 350L514 357L643 390L771 338L900 382L900 601L771 601L643 601L514 601L386 601L257 601L129 601L0 601Z" fill="#297ea6"></path><path d="M0 361L129 360L257 398L386 370L514 402L643 393L771 413L900 386L900 601L771 601L643 601L514 601L386 601L257 601L129 601L0 601Z" fill="#29759b"></path><path d="M0 423L129 449L257 420L386 400L514 410L643 432L771 383L900 401L900 601L771 601L643 601L514 601L386 601L257 601L129 601L0 601Z" fill="#286c90"></path><path d="M0 427L129 458L257 439L386 453L514 460L643 424L771 462L900 429L900 601L771 601L643 601L514 601L386 601L257 601L129 601L0 601Z" fill="#276386"></path><path d="M0 477L129 494L257 491L386 476L514 495L643 478L771 492L900 440L900 601L771 601L643 601L514 601L386 601L257 601L129 601L0 601Z" fill="#255a7b"></path><path d="M0 483L129 499L257 481L386 487L514 498L643 492L771 503L900 488L900 601L771 601L643 601L514 601L386 601L257 601L129 601L0 601Z" fill="#235171"></path><path d="M0 496L129 530L257 520L386 533L514 498L643 509L771 497L900 499L900 601L771 601L643 601L514 601L386 601L257 601L129 601L0 601Z" fill="#214966"></path><path d="M0 563L129 537L257 561L386 537L514 555L643 539L771 538L900 557L900 601L771 601L643 601L514 601L386 601L257 601L129 601L0 601Z" fill="#1e415c"></path><path d="M0 561L129 561L257 572L386 586L514 569L643 587L771 553L900 575L900 601L771 601L643 601L514 601L386 601L257 601L129 601L0 601Z" fill="#1b3952"></path></svg>