<svg id="visual" viewBox="0 0 900 600" width="900" height="600" xmlns="http://www.w3.org/2000/svg" xmlns:xlink="http://www.w3.org/1999/xlink" version="1.1"><rect x="0" y="0" width="900" height="600" fill="#205e7b"></rect><path d="M0 422L100 422L100 405L200 405L200 417L300 417L300 394L400 394L400 432L500 432L500 364L600 364L600 435L700 435L700 492L800 492L800 425L900 425L900 409L900 0L900 0L800 0L800 0L700 0L700 0L600 0L600 0L500 0L500 0L400 0L400 0L300 0L300 0L200 0L200 0L100 0L100 0L0 0Z" fill="#00101c"></path><path d="M0 396L100 396L100 391L200 391L200 354L300 354L300 335L400 335L400 342L500 342L500 404L600 404L600 427L700 427L700 327L800 327L800 363L900 363L900 381L900 0L900 0L800 0L800 0L700 0L700 0L600 0L600 0L500 0L500 0L400 0L400 0L300 0L300 0L200 0L200 0L100 0L100 0L0 0Z" fill="#0a1e2d"></path><path d="M0 285L100 285L100 302L200 302L200 322L300 322L300 298L400 298L400 279L500 279L500 262L600 262L600 371L700 371L700 245L800 245L800 316L900 316L900 267L900 0L900 0L800 0L800 0L700 0L700 0L600 0L600 0L500 0L500 0L400 0L400 0L300 0L300 0L200 0L200 0L100 0L100 0L0 0Z" fill="#102c40"></path><path d="M0 239L100 239L100 209L200 209L200 255L300 255L300 245L400 245L400 313L500 313L500 221L600 221L600 311L700 311L700 310L800 310L800 256L900 256L900 237L900 0L900 0L800 0L800 0L700 0L700 0L600 0L600 0L500 0L500 0L400 0L400 0L300 0L300 0L200 0L200 0L100 0L100 0L0 0Z" fill="#163b53"></path><path d="M0 183L100 183L100 229L200 229L200 168L300 168L300 231L400 231L400 259L500 259L500 187L600 187L600 216L700 216L700 241L800 241L800 257L900 257L900 214L900 0L900 0L800 0L800 0L700 0L700 0L600 0L600 0L500 0L500 0L400 0L400 0L300 0L300 0L200 0L200 0L100 0L100 0L0 0Z" fill="#1c4b67"></path><path d="M0 121L100 121L100 132L200 132L200 137L300 137L300 145L400 145L400 214L500 214L500 131L600 131L600 133L700 133L700 174L800 174L800 179L900 179L900 191L900 0L900 0L800 0L800 0L700 0L700 0L600 0L600 0L500 0L500 0L400 0L400 0L300 0L300 0L200 0L200 0L100 0L100 0L0 0Z" fill="#215b7c"></path><path d="M0 112L100 112L100 88L200 88L200 86L300 86L300 125L400 125L400 108L500 108L500 80L600 80L600 98L700 98L700 127L800 127L800 76L900 76L900 140L900 0L900 0L800 0L800 0L700 0L700 0L600 0L600 0L500 0L500 0L400 0L400 0L300 0L300 0L200 0L200 0L100 0L100 0L0 0Z" fill="#256c91"></path><path d="M0 51L100 51L100 98L200 98L200 85L300 85L300 70L400 70L400 52L500 52L500 74L600 74L600 36L700 36L700 38L800 38L800 66L900 66L900 85L900 0L900 0L800 0L800 0L700 0L700 0L600 0L600 0L500 0L500 0L400 0L400 0L300 0L300 0L200 0L200 0L100 0L100 0L0 0Z" fill="#297ea6"></path></svg>