<svg id="visual" viewBox="0 0 900 600" width="900" height="600" xmlns="http://www.w3.org/2000/svg" xmlns:xlink="http://www.w3.org/1999/xlink" version="1.1"><rect width="900" height="600" fill="#00101C"></rect><g><g transform="translate(851 472)"><path d="M53.2 -16.4C59.7 2.5 49.2 27.9 30.1 41.8C11.1 55.7 -16.5 58.2 -31.4 46.6C-46.3 35 -48.4 9.3 -41.1 -10.9C-33.7 -31.1 -16.9 -45.8 3.3 -46.9C23.4 -47.9 46.8 -35.4 53.2 -16.4Z" stroke="#297EA6" fill="none" stroke-width="20"></path></g><g transform="translate(544 377)"><path d="M36.8 -15C41.9 3.6 36.1 22.6 21 35C6 47.3 -18.3 53 -34 42.6C-49.7 32.2 -56.8 5.7 -49.7 -15.7C-42.6 -37 -21.3 -53.3 -2.7 -52.4C15.9 -51.5 31.8 -33.5 36.8 -15Z" stroke="#297EA6" fill="none" stroke-width="20"></path></g><g transform="translate(406 154)"><path d="M54.6 -14.1C61.9 4.9 53 32.8 35.9 43.9C18.8 55 -6.5 49.4 -21.8 36.6C-37.2 23.9 -42.6 4.2 -37.3 -12C-32 -28.2 -16 -40.8 3.8 -42.1C23.6 -43.3 47.2 -33.2 54.6 -14.1Z" stroke="#297EA6" fill="none" stroke-width="20"></path></g><g transform="translate(563 586)"><path d="M25.2 -8.4C29 3.4 25.8 17.3 15.9 25.2C6.1 33.1 -10.4 35.1 -21.2 27.7C-31.9 20.2 -36.8 3.3 -32.3 -9.5C-27.8 -22.4 -13.9 -31.1 -1.6 -30.6C10.7 -30.1 21.5 -20.3 25.2 -8.4Z" stroke="#297EA6" fill="none" stroke-width="20"></path></g><g transform="translate(99 443)"><path d="M36.6 -13.5C40.2 -0.7 31 14.7 18.8 22.9C6.6 31 -8.7 32 -21.3 24.1C-34 16.1 -44 -0.7 -40 -14C-36 -27.3 -18 -37 -0.8 -36.8C16.5 -36.5 32.9 -26.3 36.6 -13.5Z" stroke="#297EA6" fill="none" stroke-width="20"></path></g><g transform="translate(887 30)"><path d="M39.3 -12.8C44.2 2.1 36.6 21.1 22.7 31.3C8.7 41.5 -11.8 42.9 -23.6 34C-35.3 25.1 -38.4 5.8 -33 -9.8C-27.6 -25.5 -13.8 -37.5 1.7 -38C17.2 -38.6 34.5 -27.7 39.3 -12.8Z" stroke="#297EA6" fill="none" stroke-width="20"></path></g><g transform="translate(201 576)"><path d="M47.7 -16.8C53.5 2.5 44.3 25.3 28.5 36.1C12.7 46.8 -9.6 45.4 -27.1 33.5C-44.6 21.7 -57.4 -0.5 -52.1 -19.1C-46.7 -37.7 -23.4 -52.6 -1.2 -52.2C20.9 -51.8 41.8 -36.1 47.7 -16.8Z" stroke="#297EA6" fill="none" stroke-width="20"></path></g><g transform="translate(828 303)"><path d="M38.7 -11.1C44.6 5.5 39.9 27 26.3 37.2C12.7 47.3 -9.9 46 -24.8 35C-39.6 24 -46.8 3.2 -41.4 -12.8C-35.9 -28.7 -18 -40 -0.8 -39.7C16.4 -39.5 32.8 -27.7 38.7 -11.1Z" stroke="#297EA6" fill="none" stroke-width="20"></path></g><g transform="translate(186 7)"><path d="M32 -12.3C36.3 2.9 31.1 19.2 18.7 29C6.4 38.7 -13.1 41.8 -24.4 33.6C-35.6 25.4 -38.6 6 -33.1 -10.7C-27.7 -27.4 -13.9 -41.4 0 -41.4C13.8 -41.4 27.7 -27.4 32 -12.3Z" stroke="#297EA6" fill="none" stroke-width="20"></path></g></g></svg>